<svg xmlns="http://www.w3.org/2000/svg" width="1200" height="630" viewBox="0 0 1200 630">
<rect width="1200" height="630" fill="#f8f9fc"/>
<path d="M0 520H1200" stroke="#e2e5ec"/>
<path d="M920 0V630" stroke="#e2e5ec"/>
<circle cx="1040" cy="110" r="250" fill="#4353D6" opacity=".07"/>
<rect x="86" y="112" width="112" height="112" rx="30" fill="#4353D6"/>
<path d="M113 139h17v24h32v-24h17v66h-17v-26h-32v26h-17v-66Z" fill="#fff"/>
<path d="M158 139h21v39c0 19-10 29-29 29h-5v-15h5c6 0 8-3 8-10v-43Z" fill="#fff" opacity=".9"/>
<text x="86" y="315" font-family="Arial, Helvetica, sans-serif" font-size="66" font-weight="700" fill="#121828">Houssem Janfaoui</text>
<text x="90" y="382" font-family="Arial, Helvetica, sans-serif" font-size="30" font-weight="500" fill="#4353D6">Web Developer · React · Next.js</text>
<text x="90" y="440" font-family="Arial, Helvetica, sans-serif" font-size="22" fill="#697284">Freelance · Tunisia &amp; Remote</text>
<rect x="90" y="500" width="180" height="4" rx="2" fill="#4353D6"/>
</svg>